<svg xmlns="http://www.w3.org/2000/svg" viewBox="0 0 1400 700" preserveAspectRatio="xMaxYMid slice">
  <g stroke="#C9A968" fill="none" stroke-width="2" opacity="0.5">
    <line x1="120" y1="520" x2="120" y2="580" />
    <line x1="180" y1="470" x2="180" y2="560" />
    <line x1="240" y1="430" x2="240" y2="520" />
    <line x1="300" y1="450" x2="300" y2="500" />
    <line x1="360" y1="380" x2="360" y2="470" />
    <line x1="420" y1="360" x2="420" y2="420" />
    <line x1="480" y1="320" x2="480" y2="400" />
    <line x1="540" y1="340" x2="540" y2="390" />
    <line x1="600" y1="280" x2="600" y2="360" />
    <line x1="660" y1="250" x2="660" y2="320" />
    <line x1="720" y1="260" x2="720" y2="310" />
    <line x1="780" y1="200" x2="780" y2="280" />
    <line x1="840" y1="180" x2="840" y2="250" />
    <line x1="900" y1="150" x2="900" y2="220" />
    <line x1="960" y1="170" x2="960" y2="210" />
    <line x1="1020" y1="120" x2="1020" y2="190" />
    <line x1="1080" y1="100" x2="1080" y2="160" />
    <line x1="1140" y1="80" x2="1140" y2="140" />
    <line x1="1200" y1="60" x2="1200" y2="120" />
    <line x1="1260" y1="40" x2="1260" y2="100" />
    <line x1="1320" y1="30" x2="1320" y2="80" />
  </g>
  <g fill="#3A6B63" opacity="0.45">
    <rect x="108" y="500" width="24" height="55" rx="1" />
    <rect x="168" y="480" width="24" height="60" rx="1" />
    <rect x="228" y="440" width="24" height="65" rx="1" />
    <rect x="288" y="460" width="24" height="30" rx="1" />
    <rect x="348" y="390" width="24" height="65" rx="1" />
    <rect x="408" y="370" width="24" height="40" rx="1" />
    <rect x="468" y="330" width="24" height="55" rx="1" />
    <rect x="528" y="350" width="24" height="30" rx="1" />
    <rect x="588" y="290" width="24" height="55" rx="1" />
    <rect x="648" y="260" width="24" height="50" rx="1" />
    <rect x="708" y="270" width="24" height="30" rx="1" />
    <rect x="768" y="210" width="24" height="55" rx="1" />
    <rect x="828" y="190" width="24" height="45" rx="1" />
    <rect x="888" y="160" width="24" height="50" rx="1" />
    <rect x="948" y="180" width="24" height="20" rx="1" />
    <rect x="1008" y="130" width="24" height="50" rx="1" />
    <rect x="1068" y="110" width="24" height="35" rx="1" />
    <rect x="1128" y="90" width="24" height="35" rx="1" />
    <rect x="1188" y="70" width="24" height="35" rx="1" />
    <rect x="1248" y="50" width="24" height="35" rx="1" />
    <rect x="1308" y="40" width="24" height="30" rx="1" />
  </g>
  <polyline points="120,545 180,510 240,470 300,470 360,420 420,390 480,360 540,365 600,315 660,285 720,285 780,235 840,215 900,185 960,190 1020,155 1080,128 1140,108 1200,90 1260,70 1320,55"
    stroke="#C9A968" stroke-width="2.5" fill="none" opacity="0.55" stroke-linejoin="round" stroke-linecap="round" />
</svg>
